<svg xmlns="http://www.w3.org/2000/svg" viewBox="0 0 427.82 556.31"><defs><style>.cls-1{fill:#fff;}</style></defs><g id="Layer_2" data-name="Layer 2"><g id="HQ"><path d="M285,57.43a8.7,8.7,0,0,1-8.72,8.69H217.64a8.66,8.66,0,1,1,0-17.32h58.59A8.68,8.68,0,0,1,285,57.43Z"/><rect x="138.12" y="78.2" width="217.64" height="302.08"/><path d="M75.07,0,0,89.27v467H352.75l75.07-89.26V0ZM394.86,444.61H99v-412H394.86Z"/><path class="cls-1" d="M99,32.61v412H394.86v-412ZM217.64,48.8h58.59a8.66,8.66,0,1,1,0,17.32H217.64a8.66,8.66,0,1,1,0-17.32Zm29.3,385.69a21.28,21.28,0,1,1,21.53-21.24A21.42,21.42,0,0,1,246.94,434.49Zm108.82-54.21H138.12V78.2H355.76Z"/><path d="M268.47,413.25a21.54,21.54,0,1,1-21.53-21.31A21.38,21.38,0,0,1,268.47,413.25Z"/></g></g></svg>