<svg xmlns="http://www.w3.org/2000/svg" xmlns:xlink="http://www.w3.org/1999/xlink" viewBox="0 0 1756.34 969.25"><defs><style>.cls-1{isolation:isolate;}.cls-2,.cls-3{fill:#cbd8e7;}.cls-15,.cls-21,.cls-3{mix-blend-mode:multiply;}.cls-4,.cls-5{fill:#fff;}.cls-4{opacity:0.5;}.cls-6{fill:#791028;}.cls-7{fill:url(#linear-gradient);}.cls-8{fill:url(#linear-gradient-2);}.cls-15,.cls-9{fill:#2861a3;}.cls-10{fill:url(#linear-gradient-3);}.cls-11{fill:#4b1149;}.cls-12{fill:url(#linear-gradient-4);}.cls-13{fill:#fdd1a9;}.cls-14{fill:url(#linear-gradient-5);}.cls-16{fill:url(#linear-gradient-6);}.cls-17{fill:url(#linear-gradient-7);}.cls-18{fill:url(#linear-gradient-8);}.cls-19{fill:url(#linear-gradient-9);}.cls-20{fill:url(#linear-gradient-10);}.cls-22{fill:url(#linear-gradient-11);}.cls-23{fill:#ffda8b;}.cls-24{fill:url(#linear-gradient-12);}.cls-25{fill:url(#linear-gradient-13);}.cls-26{fill:url(#linear-gradient-14);}.cls-27{fill:url(#linear-gradient-15);}.cls-28{fill:url(#linear-gradient-16);}.cls-29{fill:url(#linear-gradient-17);}.cls-30{fill:#754c28;}.cls-31{fill:url(#linear-gradient-18);}.cls-32{fill:url(#linear-gradient-19);}.cls-33{fill:url(#linear-gradient-20);}.cls-34{fill:url(#linear-gradient-21);}.cls-35{fill:url(#linear-gradient-22);}.cls-36{fill:url(#linear-gradient-23);}.cls-37{fill:url(#linear-gradient-24);}</style><linearGradient id="linear-gradient" x1="919.7" y1="437.68" x2="919.7" y2="379.86" gradientTransform="translate(-289.23)" gradientUnits="userSpaceOnUse"><stop offset="0.1" stop-color="#ffda8b"/><stop offset="0.25" stop-color="#fed589"/><stop offset="0.41" stop-color="#fdc884"/><stop offset="0.58" stop-color="#fab27c"/><stop offset="0.76" stop-color="#f79371"/><stop offset="0.94" stop-color="#f36c62"/><stop offset="1" stop-color="#f15e5d"/></linearGradient><linearGradient id="linear-gradient-2" x1="610.2" y1="377.39" x2="663.22" y2="377.39" gradientTransform="matrix(1, 0, 0, 1, 0, 0)" xlink:href="#linear-gradient"/><linearGradient id="linear-gradient-3" x1="512.32" y1="506.21" x2="592.03" y2="506.21" gradientUnits="userSpaceOnUse"><stop offset="0" stop-color="#f89420"/><stop offset="1" stop-color="#f04f36"/></linearGradient><linearGradient id="linear-gradient-4" x1="573.75" y1="497.71" x2="688.87" y2="497.71" xlink:href="#linear-gradient-3"/><linearGradient id="linear-gradient-5" x1="-4600.69" y1="503.41" x2="-4520.99" y2="503.41" gradientTransform="matrix(-1, 0, 0, 1, -3850.82, 0)" xlink:href="#linear-gradient-3"/><linearGradient id="linear-gradient-6" x1="822.18" y1="710.73" x2="1165.03" y2="710.73" gradientUnits="userSpaceOnUse"><stop offset="0.1" stop-color="#f6895d"/><stop offset="0.95" stop-color="#f16680"/></linearGradient><linearGradient id="linear-gradient-7" x1="841.35" y1="349.38" x2="965.73" y2="349.38" xlink:href="#linear-gradient-6"/><linearGradient id="linear-gradient-8" x1="821.35" y1="233.64" x2="859.73" y2="233.64" xlink:href="#linear-gradient-6"/><linearGradient id="linear-gradient-9" x1="-6281.61" y1="895.72" x2="-6192.51" y2="895.72" gradientTransform="matrix(-1, 0, 0, 1, -5819.24, 0)" xlink:href="#linear-gradient-6"/><linearGradient id="linear-gradient-10" x1="-6237.95" y1="869.95" x2="-6237.95" y2="853.5" gradientTransform="matrix(-1, 0, 0, 1, -5819.24, 0)" xlink:href="#linear-gradient-6"/><linearGradient id="linear-gradient-11" x1="904.7" y1="176.8" x2="962.62" y2="176.8" gradientUnits="userSpaceOnUse"><stop offset="0" stop-color="#f58c6d"/><stop offset="0.66" stop-color="#ffda8b"/></linearGradient><linearGradient id="linear-gradient-12" x1="-1142.92" y1="89.8" x2="-1110.3" y2="89.8" gradientTransform="translate(2038.81)" xlink:href="#linear-gradient"/><linearGradient id="linear-gradient-13" x1="-1135.91" y1="25.78" x2="-1090.71" y2="70.98" gradientTransform="translate(2038.81)" xlink:href="#linear-gradient"/><linearGradient id="linear-gradient-14" x1="807.69" y1="137.17" x2="1043.01" y2="137.17" xlink:href="#linear-gradient-3"/><linearGradient id="linear-gradient-15" x1="851.55" y1="122.73" x2="963.31" y2="122.73" gradientUnits="userSpaceOnUse"><stop offset="0.13" stop-color="#f04f36"/><stop offset="0.94" stop-color="#f89420"/></linearGradient><linearGradient id="linear-gradient-16" x1="947.06" y1="130.29" x2="1027.86" y2="130.29" xlink:href="#linear-gradient-3"/><linearGradient id="linear-gradient-17" x1="942.89" y1="121.17" x2="914.98" y2="149.07" gradientTransform="matrix(1, 0, 0, 1, 0, 0)" xlink:href="#linear-gradient"/><linearGradient id="linear-gradient-18" x1="1097.49" y1="511.38" x2="1403.11" y2="511.38" xlink:href="#linear-gradient-3"/><linearGradient id="linear-gradient-19" x1="1201.93" y1="511.38" x2="1507.55" y2="511.38" xlink:href="#linear-gradient-3"/><linearGradient id="linear-gradient-20" x1="1257.02" y1="210.38" x2="1416.39" y2="210.38" xlink:href="#linear-gradient-3"/><linearGradient id="linear-gradient-21" x1="-6403.72" y1="214.54" x2="-6355.35" y2="214.54" gradientTransform="matrix(-1, 0, 0, 1, -4976.63, 0)" xlink:href="#linear-gradient"/><linearGradient id="linear-gradient-22" x1="-6377.17" y1="199.72" x2="-6377.17" y2="143.79" gradientTransform="matrix(-1, 0, 0, 1, -4976.63, 0)" xlink:href="#linear-gradient"/><linearGradient id="linear-gradient-23" x1="1365.39" y1="279.98" x2="1442.37" y2="279.98" xlink:href="#linear-gradient-3"/><linearGradient id="linear-gradient-24" x1="1426.31" y1="265.08" x2="1507.95" y2="265.08" xlink:href="#linear-gradient-3"/></defs><g class="cls-1"><g id="Layer_2" data-name="Layer 2"><g id="Layer_1-2" data-name="Layer 1"><path class="cls-2" d="M1562.11,941H348.37s-151.12-296.7,60-398.6S677,467.46,672.19,305.63,772.94,44.89,859.29,95.84s160.72,179.82,295,101.9,326.23-65.94,321.43,182.81,64.77,239.76,119.94,278.72S1720.43,833.1,1562.11,941Z"/><path class="cls-3" d="M393.38,941H1607.13s151.11-296.7-60-398.6S1278.5,467.46,1283.3,305.63,1182.56,44.89,1096.2,95.84s-160.71,179.82-295,101.9S474.94,131.8,479.73,380.55,415,620.31,359.8,659.27,235.07,833.1,393.38,941Z"/><path class="cls-4" d="M1526.21,377s52.22,394-299.09,180.39S652.7,49.45,325.13,358,0,422.9,0,422.9l11.8,163s14.25,57,204.14-61.72,284.84-261.1,465.24,4.75,959,640.89,935.23,4.75"/><rect class="cls-3" x="145.32" y="940.76" width="1554.75" height="28.48" rx="5.93"/><path class="cls-2" d="M417.13,840.6s5.56-93.55-1.48-108.35-17.33-23.94-27.46-12.86-14.36,12.84-14.51-.5-17.36-42.29-36.23-31.42-5,29.44.59,37.34,13.88,18.63,5.67,16.76-17.55-4.78-16.54,3.57,20.75,13.17,30.59,21.44,10.6,15.11,1.52,13.69S336,789,345.35,796.38s59.11,40.19,59.11,40.19Z"/><path class="cls-5" d="M410.8,833.47c-.39-1.73-1-3.78-1.69-6.16s-1.6-5-2.56-7.89-2.17-5.94-3.4-9.2-2.67-6.62-4.13-10.12c-.13-.33-.28-.66-.42-1,.38-1.22.92-3,1.49-5.2s1.15-4.55,1.72-7.19c.27-1.32.6-2.68.84-4.08s.54-2.8.81-4.22.47-2.84.7-4.23.42-2.79.62-4.12c.38-2.68.68-5.18.88-7.35.43-4.31.48-7.23.48-7.23s-1,2.77-2.06,7c-.56,2.09-1.15,4.55-1.72,7.18-.27,1.33-.6,2.69-.85,4.08s-.54,2.8-.8,4.23-.48,2.83-.71,4.23-.42,2.78-.61,4.12c-.39,2.68-.68,5.18-.88,7.34-.18,1.75-.29,3.24-.36,4.43q-1.83-4.27-3.8-8.67c-1.67-3.62-3.36-7.29-5.06-11-3.5-7.28-7.05-14.54-10.52-21.27s-6.79-13-9.71-18.29-5.45-9.68-7.2-12.76-2.82-4.78-2.82-4.78l2.34,5c1.52,3.19,3.67,7.75,6.26,13.24,3.84,8,8.64,18.08,13.69,28.63l-.28-.28c-1.11-1.14-2.45-2.43-3.91-3.74s-3.06-2.71-4.68-4-3.31-2.61-4.91-3.77-3.11-2.23-4.44-3.09c-2.66-1.73-4.58-2.7-4.58-2.7a51.62,51.62,0,0,0,3.57,4c1.11,1.13,2.44,2.41,3.9,3.73s3.06,2.71,4.69,4.05,3.3,2.61,4.89,3.78,3.11,2.21,4.45,3.07c.94.61,1.78,1.13,2.49,1.54q2.1,4.43,4.25,8.89l5.12,10.88c1.66,3.61,3.3,7.15,4.88,10.57s3.1,6.76,4.45,9.94,2.74,6.16,3.83,9c.57,1.4,1.12,2.73,1.65,4s1,2.47,1.43,3.63c.82,2.31,1.63,4.3,2.14,6,1,3.38,1.6,5.32,1.6,5.32S411.51,837,410.8,833.47Z"/><path class="cls-5" d="M375.22,801.43a45.9,45.9,0,0,0,4.16,2.86c1.27.8,2.79,1.69,4.43,2.58s3.43,1.82,5.22,2.67,3.63,1.65,5.36,2.36,3.38,1.33,4.8,1.81a46.83,46.83,0,0,0,4.85,1.41,45.9,45.9,0,0,0-4.16-2.86c-1.27-.81-2.78-1.69-4.43-2.58s-3.42-1.81-5.22-2.67-3.63-1.65-5.36-2.36-3.37-1.33-4.8-1.81A46.83,46.83,0,0,0,375.22,801.43Z"/><path class="cls-5" d="M420.08,841.3s-43.59-149.52-37.66-176.09,19.23-45.19,39.74-31,28,15.49,23.33-6.18,12.5-74.93,47.09-64.3,18.92,45.86,12.84,60.72-15.6,35.31-3,29.24,26.68-14.23,28.13-.32-28.76,29-41.65,46-11.59,28.41,2.6,22.74,41,5.52,28.53,21-80.92,87-80.92,87Z"/><path class="cls-3" d="M438.46,769.75c1.3-6.13,2.63-12.47,4-18.93s2.85-13,4.29-19.52q1.8-8,3.59-16c1-.93,2.16-2.08,3.46-3.41,1.85-1.89,3.93-4.16,6.07-6.63s4.38-5.19,6.53-7.94,4.22-5.57,6.1-8.28,3.57-5.25,4.95-7.5a83.77,83.77,0,0,0,4.32-7.71,86.1,86.1,0,0,0-6.42,6.08c-1.85,1.88-3.92,4.14-6.06,6.63s-4.4,5.16-6.55,7.93-4.22,5.57-6.1,8.27-3.56,5.25-4.94,7.5c-.12.19-.23.38-.35.56,4.27-19,8.33-37,11.59-51.45,2.17-9.84,4-18,5.24-23.76s1.94-9,1.94-9-1.08,3.19-2.81,8.79-4.22,13.64-6.94,23.33-5.84,21-9,33.23-6.2,25.25-9.19,38.35c-1.39,6.57-2.78,13.15-4.14,19.62-1,5.24-2,10.38-2.95,15.46-.56-1.9-1.29-4.28-2.22-7.06-1.13-3.42-2.53-7.36-4.15-11.56-.8-2.09-1.58-4.28-2.5-6.45s-1.8-4.38-2.72-6.59-1.91-4.4-2.86-6.55-2-4.25-2.89-6.3c-1.9-4.06-3.76-7.82-5.44-11-3.31-6.39-5.9-10.51-5.9-10.51s1.16,4.72,3.45,11.54c1.13,3.43,2.54,7.38,4.14,11.58.81,2.08,1.61,4.27,2.51,6.44s1.8,4.39,2.72,6.6,1.9,4.39,2.86,6.54,1.95,4.26,2.88,6.3c1.89,4.07,3.76,7.82,5.45,11s3.25,6,4.33,7.88c-.11.58-.23,1.17-.33,1.75-1.06,6.21-2.16,12.19-2.94,17.93s-1.67,11.12-2.12,16.16-1.11,9.59-1.22,13.72-.47,7.66-.45,10.61c.13,5.9.26,9.24.26,9.24s.28-3.36.64-9.2c.21-2.92.78-6.44,1.26-10.49.25-2,.56-4.16,1-6.41s.78-4.63,1.18-7.1c.44-2.93,1-6,1.64-9.17,1.31-.68,3.26-1.75,5.53-3.18s4.57-2.9,7.12-4.69,5.21-3.76,7.81-5.82,5.13-4.18,7.47-6.25,4.46-4.05,6.22-5.82a74.81,74.81,0,0,0,5.69-6.17,76.89,76.89,0,0,0-7.33,4.08c-2.14,1.31-4.57,2.91-7.11,4.71s-5.21,3.74-7.82,5.81-5.14,4.17-7.47,6.24-4.46,4-6.22,5.82c-1.46,1.44-2.67,2.72-3.6,3.75.33-1.72.66-3.47,1-5.26C435.93,781.84,437.3,775.93,438.46,769.75Z"/><path class="cls-5" d="M1570.6,672.33c.92-3.5,1.78-6.79,2.6-9.9s1.79-6,2.55-8.65,1.5-5.14,2.28-7.32c1-2.89,1.75-5.32,2.46-7.34,6.71-3.18,55.82-28.8,45.12-93.17,0,0-68.2,20.52-46.1,92.8-1,1.89-2.18,4.18-3.49,6.89-2.07,4.19-4.33,9.38-6.87,15.38-1.2,3-2.47,6.25-3.8,9.64s-2.13,7.17-3.29,11c-.81,3-1.71,6.14-2.58,9.35-1.09-3.35-2.54-7.77-4-12.22-.73-2.23-1.47-4.48-2.17-6.56-.28-.77-.55-1.51-.81-2.24,34.2-72.16-16.42-101.59-16.42-101.59-26.12,79.53,3.51,97.5,13.31,101.16.41,1.14.86,2.34,1.33,3.62.68,2.09,1.42,4.31,2.14,6.52,1.46,4.44,2.91,8.87,4,12.21.19.4.17.84.42,1.18s.45.68.64,1,.38.55.56.83c-.89,3.82-1.78,7.74-2.73,11.78-.5,2.24-1.07,4.49-1.53,6.8s-.84,4.65-1.27,7c-.84,4.73-1.71,9.58-2.6,14.49-.71,5-1.44,9.92-2,15-.28,2.43-.53,4.9-.8,7.35a19.81,19.81,0,0,0-.39-2.1c-.26-1.29-.54-2.59-.82-3.9-.55-2.61-1.09-5.23-1.61-7.69s-1.26-4.69-1.77-6.64a11.73,11.73,0,0,0-.39-1.37c-.22-.42-.44-.8-.63-1.18s-.35-.58-.53-.88c2.45-12.2,8.6-61.61-44.46-91.71,0,0-26.93,65.83,43,94.16a2.67,2.67,0,0,1,0,.4,8.89,8.89,0,0,0,.37,1.36c.51,1.92,1.1,4.14,1.74,6.52s1.06,5,1.59,7.59c.27,1.28.54,2.58.81,3.85a31.56,31.56,0,0,1,.6,3.74c.32,2.46.59,4.75.85,6.7a7,7,0,0,0,.2,1.4l.29.76c-1,9.45-1.92,19-3.45,28.37-.72,5.2-1.85,10.32-2.88,15.42-.53,2.55-1.27,5-1.89,7.55s-1.25,5-2.1,7.46c-.19.56-.36,1.09-.54,1.65,0-.39-.1-.78-.17-1.18a49.61,49.61,0,0,0-1-5.37c-.34-1.87-1-3.72-1.54-5.66-.67-1.87-1.34-3.79-2.17-5.65-.85-1.67-1.58-3.41-2.57-5,.37,0,.71,0,1.09,0,0,0,.73-61.82-62.85-72.32,0,0-7.9,68.25,58.43,72.11.24.4.48.77.71,1.16a47.57,47.57,0,0,1,2.65,5.12c.79,1.76,1.42,3.61,2.08,5.4.5,1.84,1.14,3.62,1.47,5.42s.77,3.5,1,5.17.42,3.22.58,4.68c.12.73,0,1.44.17,2.09a2.47,2.47,0,0,0,.06.29c-.75,2.19-1.52,4.36-2.42,6.47-.93,2.34-1.83,4.68-2.76,7s-2.11,4.51-3.14,6.73S1523,859.79,1522,862s-2.28,4.25-3.4,6.32c-2.27,4.16-4.39,8.28-6.83,12.08s-4.67,7.58-6.9,11.21c-.57.83-1.12,1.65-1.69,2.47.09-1,.16-1.93.17-2.9a41.38,41.38,0,0,0-1.39-11.68,4.28,4.28,0,0,0-.3-1.09c-.21-.34-.41-.63-.6-.91s-.48-.65-.7-1c1.59-6.33,11.59-53.31-36.42-75.72,0,0-23.68,57.89,35.08,76.07v1.25c0,.32,0,.67,0,1a7.34,7.34,0,0,0,.28,1,39.15,39.15,0,0,1,1.29,10.89,32,32,0,0,1-.62,5.81,24.33,24.33,0,0,1-.62,2.61c0,.13-.08.23-.12.35l-1.29,1.91-3.3,4.78c-1.09,1.52-2.25,3-3.21,4.5l-5.6,8.59c-3.45,5.45-6.74,10-9.43,13.78-5.35,7.59-8.33,12-8.33,12s3.65-3.85,9.94-10.7c3.15-3.44,7-7.57,11.14-12.59,1.45-1.69,3-3.5,4.56-5.36l.65-.07,1.1-.14c.39,0,.7-.32,1.11-.44a15.59,15.59,0,0,1,2.46-.94l2.85-.76c1-.26,2-.6,3.08-.81s2.14-.29,3.23-.44a19.55,19.55,0,0,1,3.23-.33c1.09,0,2.15-.06,3.15-.08a21.81,21.81,0,0,1,3,.13c.93.1,1.82.09,2.61.25a6.46,6.46,0,0,0,1.17.19l.57-.07c9.31,6.29,53.51,32.19,102.23-6.38,0,0-50.37-49.16-102.62,3.66-.3,0-.63-.06-1-.14-.86-.16-1.8-.17-2.79-.27a24.54,24.54,0,0,0-3.13-.14l-3.36.09a25,25,0,0,0-3.42.33l-3.42.49c-1.11.22-2.18.56-3.23.83l-3,.82a7.35,7.35,0,0,0-1.3.44c2-2.47,3.66-5.3,5.62-8.08l7-10.3q3.38-5.54,7-11.39c2.49-3.86,4.65-8.06,7-12.31,1.14-2.11,2.29-4.27,3.47-6.43.54-1.14,1.09-2.31,1.62-3.47.16,0,.3,0,.46,0s.48-.27.76-.35l7.54-3.66,7.55-3.67c.17-.11.36-.15.52-.24,13.71,2.64,61.34,7.51,91-44,0,0-65.87-27.52-94.62,42.63-1.73.84-3.7,1.81-5.67,2.75l-5.85,2.82c1-2.14,2-4.27,3-6.49s1.88-4.77,2.83-7.16c2.05-4.77,3.53-9.8,5.2-14.83.87-2.49,1.45-5.08,2.15-7.65s1.41-5.15,2-7.76c.78-3.9,1.58-7.82,2.26-11.75a10.07,10.07,0,0,0,.57-1.19c1.09-2.24,2.15-4.93,3.68-7.69s3-5.73,4.72-8.62c3.28-5.83,6.82-11.53,9.5-15.8a17.42,17.42,0,0,0,1-1.53l.35-.86c7.65-1,64.44-10.4,63.76-76.19,0,0-80.3,17.79-65.17,74.22l-.13.14-1.14,1.21c-.39.44-.6,1-1,1.53-2.71,4.29-6.26,10-9.58,15.9-1.72,2.91-3.26,5.94-4.76,8.74-.1.2-.19.41-.29.61,1.23-8.74,2.08-17.46,3-26,.5-5.19,1.09-10.3,1.66-15.32s1.34-10.12,2-14.94c.88-4.84,1.74-9.63,2.58-14.3.42-2.34.84-4.65,1.24-6.94s1-4.49,1.52-6.7c.91-4,1.81-7.78,2.67-11.53a28.44,28.44,0,0,1,1.68-2.89c.77-1.19,1.54-2.42,2.45-3.56a42.43,42.43,0,0,1,2.73-3.38c.9-1.09,1.94-2,2.88-3a59.36,59.36,0,0,1,5.66-4.85c.41-.35.89-.56,1.25-.92l1-1.05.06-.07c11.51.38,49.63-1.79,55.13-46.2,0,0-51.67-5.38-58.34,45.44a6.22,6.22,0,0,1-.75.58,63.39,63.39,0,0,0-5.94,5.08c-1,1-2.06,2-3,3.2-.89,1-1.72,2-2.53,3.12.45-1.57.89-3.12,1.31-4.64C1568.4,679.36,1569.63,675.79,1570.6,672.33Z"/><polygon class="cls-6" points="611.74 377.39 595.25 337.69 649.6 317.25 663.22 301.61 653.95 346.38 611.74 377.39"/><polygon class="cls-7" points="619.6 379.86 616.56 426.81 644.38 437.68 640.9 388.12 619.6 379.86"/><path class="cls-8" d="M654,346.38s20.86,58.69,0,61.73-29.57-20-29.57-20-6.52,2.61-11.3-5.66-2.17-12.54-2.17-12.54l4.78-2.23,2.61-.88-4.78-15.21Z"/><path class="cls-6" d="M613.45,351.14s10.4,31.14,19.89,37.67c17.7,12.18,30.56-4.24,30.56-4.24s5.1,23.22-10.43,24.94-28.15,2.55-39.23-44.72Z"/><path class="cls-5" d="M692.9,911.51c-15.7-2.11-37-17.88-37-17.88l-10.71,9.73-2.51,22.78h73.15C714.54,921.23,709.79,913.77,692.9,911.51Z"/><path class="cls-9" d="M715.82,926.14a12,12,0,0,1,.36,4.5h-74l.5-4.5-1.82,8.65h75.86Z"/><path class="cls-9" d="M716.18,930.64a12,12,0,0,0-.36-4.5H642.67l-.5,4.5Z"/><polygon class="cls-5" points="575.21 561.2 581.45 570.76 563.36 584.7 557.12 574.1 575.21 561.2"/><polygon class="cls-5" points="678.67 467.11 633.34 509.94 590.28 465.06 609.08 421.1 626.73 421.1 637.66 428.77 639.78 421.1 653.27 421.1 678.67 467.11"/><path class="cls-10" d="M592,484.7l-6.88-19.4-11.27-31.82s-65.33,71.5-61.39,87.81C514.41,530,559.07,579,559.07,579l6.89-6.29,9.74-8.88L545.22,519Z"/><polygon class="cls-11" points="632.2 641.23 616.99 732.52 598.93 914.28 575.09 913.08 577.91 717.54 580.56 573.8 682.69 574.51 680.2 748.31 671.56 903.66 645.08 904.02 639.45 734.18 632.2 641.23"/><path class="cls-5" d="M597.57,905.41c-5.41-6.66-21,0-21,0l-9.49,17.74.22,3h36.58C602.83,919.07,600.82,909.41,597.57,905.41Z"/><path class="cls-9" d="M605,934.38s-.31-3.55-1-8.24H567.34l.61,8.24Z"/><polygon class="cls-12" points="652.5 420.67 656.66 428.14 644.79 451.48 644.82 451.75 644.6 450.75 605.77 428.14 609.93 420.67 573.75 431.49 581.23 570.98 620.05 574.76 644.87 574.76 673.26 572 683.68 570.98 688.87 429.56 652.5 420.67"/><path class="cls-5" d="M702.27,588.13v-19H687.05a48.33,48.33,0,0,0-7.25-17.47l10.77-10.77-13.45-13.45-10.77,10.77a48.44,48.44,0,0,0-17.47-7.25V515.71h-19v15.22a48.48,48.48,0,0,0-17.48,7.25l-10.77-10.77-13.45,13.45,10.77,10.77a48.32,48.32,0,0,0-7.24,17.47H576.46v19h15.23a48.24,48.24,0,0,0,7.24,17.47l-10.77,10.77,13.45,13.45,10.77-10.76a48.47,48.47,0,0,0,17.48,7.24v15.22h19V626.3a48.6,48.6,0,0,0,17.47-7.24l10.77,10.76,13.45-13.45L679.8,605.6a48.26,48.26,0,0,0,7.25-17.47Zm-62.9,17.45a27,27,0,1,1,27-27A27,27,0,0,1,639.37,605.58Z"/><path class="cls-13" d="M566,580.79l6.32,8.07,8.52,6.65s10.37,6.54,17.66,5.33,18.07-15.49,17-19.14-16.16-9.06-16.16-9.06,2.68-3.58-2.5-5.62-19.75,2.09-19.75,2.09Z"/><polygon class="cls-5" points="694.98 558.36 688.74 567.92 706.83 581.86 713.07 571.26 694.98 558.36"/><path class="cls-14" d="M670.17,481.93l6.88-19.4,11.27-31.82s65.33,71.5,61.39,87.81c-1.91,8.66-38.59,57.59-38.59,57.59l-6.89-6.28-9.75-8.89L717,516.26Z"/><path class="cls-13" d="M704.2,578,697.89,586l-8.52,6.65S679,599.21,671.71,598s-18.08-15.49-17-19.13,16.17-9.07,16.17-9.07-2.68-3.58,2.5-5.62,19.74,2.09,19.74,2.09Z"/><rect class="cls-5" x="780.64" y="199.38" width="411.8" height="645.84"/><path class="cls-15" d="M780.64,893.81c0,14.05,12.08,25.42,27,25.42h357.83c14.9,0,27-11.37,27-25.42V845.22H780.64Z"/><path class="cls-15" d="M1192.45,165c0-14-12.09-25.42-27-25.42H807.63c-14.91,0-27,11.38-27,25.42v34.36h411.81Z"/><path class="cls-5" d="M1003.29,882.7A16.75,16.75,0,1,1,986.54,866,16.75,16.75,0,0,1,1003.29,882.7Z"/><rect class="cls-3" x="817.43" y="268.58" width="342.85" height="167.44" rx="7.97"/><rect class="cls-16" x="822.18" y="627.01" width="342.85" height="167.44" rx="7.97"/><rect class="cls-3" x="817.43" y="455.5" width="162.79" height="156.65" rx="7.68"/><rect class="cls-3" x="997.5" y="455.5" width="162.79" height="156.65" rx="7.68"/><rect class="cls-17" x="841.35" y="292.5" width="124.38" height="113.75"/><polygon class="cls-5" points="918.29 325.59 880.69 388.19 918 388.19 918.59 388.19 955.9 388.19 918.29 325.59"/><path class="cls-5" d="M878,325a7.38,7.38,0,1,1-7.38-7.38A7.37,7.37,0,0,1,878,325Z"/><path class="cls-5" d="M1145.53,304.55a5,5,0,0,1-5,5.05H989.79a5,5,0,0,1-5-5.05h0a5,5,0,0,1,5-5.05h150.69a5,5,0,0,1,5,5.05Z"/><path class="cls-5" d="M1145.53,334.85a5,5,0,0,1-5,5H989.79a5,5,0,0,1-5-5h0a5,5,0,0,1,5-5.05h150.69a5,5,0,0,1,5,5.05Z"/><path class="cls-5" d="M1145.53,365.15a5,5,0,0,1-5,5.05H989.79a5,5,0,0,1-5-5.05h0a5,5,0,0,1,5-5h150.69a5,5,0,0,1,5,5Z"/><path class="cls-5" d="M1145.53,395.45a5,5,0,0,1-5,5.05H989.79a5,5,0,0,1-5-5.05h0a5,5,0,0,1,5-5.05h150.69a5,5,0,0,1,5,5.05Z"/><polygon class="cls-5" points="903.49 341.02 893.98 325.19 856.37 387.79 875.39 387.79 903.49 341.02"/><polygon class="cls-5" points="1004.68 699.67 964.96 727.53 964.96 671.82 1004.68 699.67"/><path class="cls-3" d="M1164.75,814a4.75,4.75,0,0,1-4.75,4.74H827.68a4.74,4.74,0,0,1-4.74-4.74h0a4.74,4.74,0,0,1,4.74-4.75H1160a4.75,4.75,0,0,1,4.75,4.75Z"/><path class="cls-18" d="M827.33,215.44a6,6,0,0,0-6,5.94v24.53a6,6,0,0,0,6,5.93h32.4v-36.4Z"/><path class="cls-2" d="M1150.86,215.44H859.73v36.4h291.13a6,6,0,0,0,6-5.93V221.38A6,6,0,0,0,1150.86,215.44Z"/><path class="cls-5" d="M847.93,241.71l-3.9-7.17A7.2,7.2,0,1,0,841,236.2l3.9,7.17a1.74,1.74,0,1,0,3.06-1.66Zm-6.8-8.87a4.1,4.1,0,1,1,1.64-5.55A4.1,4.1,0,0,1,841.13,232.84Z"/><polygon class="cls-19" points="387.88 855.33 447.75 855.33 462.37 855.33 453.08 936.11 447.75 936.11 387.88 936.11 382.55 936.11 373.27 855.33 387.88 855.33"/><rect class="cls-20" x="367.37" y="853.5" width="102.68" height="16.45"/><g class="cls-21"><path class="cls-3" d="M1077.09,497.25a3.91,3.91,0,0,1-3.91,3.91h-58.62a3.91,3.91,0,0,1-3.91-3.91h0a3.91,3.91,0,0,1,3.91-3.91h58.62a3.91,3.91,0,0,1,3.91,3.91Z"/><path class="cls-3" d="M1143.2,493.34h-53.51a3.91,3.91,0,1,0,0,7.82h53.51a3.91,3.91,0,1,0,0-7.82Z"/><path class="cls-3" d="M1143.2,517.08h-32.15a3.91,3.91,0,1,0,0,7.82h32.15a3.91,3.91,0,1,0,0-7.82Z"/><path class="cls-3" d="M1099.64,520.73a3.91,3.91,0,0,1-3.91,3.91h-81.17a3.91,3.91,0,0,1-3.91-3.91h0a3.91,3.91,0,0,1,3.91-3.91h81.17a3.91,3.91,0,0,1,3.91,3.91Z"/></g><g class="cls-21"><path class="cls-3" d="M1077.09,567.27a3.91,3.91,0,0,1-3.91,3.92h-58.62a3.91,3.91,0,0,1-3.91-3.92h0a3.91,3.91,0,0,1,3.91-3.91h58.62a3.91,3.91,0,0,1,3.91,3.91Z"/><path class="cls-3" d="M1143.2,563.36h-53.51a3.92,3.92,0,1,0,0,7.83h53.51a3.92,3.92,0,1,0,0-7.83Z"/><path class="cls-3" d="M1143.2,587.1h-32.15a3.91,3.91,0,1,0,0,7.82h32.15a3.91,3.91,0,1,0,0-7.82Z"/><path class="cls-3" d="M1099.64,590.75a3.92,3.92,0,0,1-3.91,3.92h-81.17a3.92,3.92,0,0,1-3.91-3.92h0a3.91,3.91,0,0,1,3.91-3.91h81.17a3.91,3.91,0,0,1,3.91,3.91Z"/></g><path class="cls-3" d="M1143.2,540.29H1014.56a3.92,3.92,0,0,0,0,7.83H1143.2a3.92,3.92,0,1,0,0-7.83Z"/><path class="cls-3" d="M1143.2,472.65H1014.56a3.91,3.91,0,1,0,0,7.82H1143.2a3.91,3.91,0,1,0,0-7.82Z"/><path class="cls-5" d="M962.21,583.61H833.57a3.92,3.92,0,0,0,0,7.83H962.21a3.92,3.92,0,0,0,0-7.83Z"/><path class="cls-5" d="M962.21,516H833.57a3.92,3.92,0,0,0,0,7.83H962.21a3.92,3.92,0,0,0,0-7.83Z"/><path class="cls-5" d="M896.1,540.57a3.91,3.91,0,0,1-3.91,3.91H833.57a3.91,3.91,0,0,1-3.91-3.91h0a3.91,3.91,0,0,1,3.91-3.91h58.62a3.91,3.91,0,0,1,3.91,3.91Z"/><path class="cls-5" d="M962.21,536.66H908.7a3.91,3.91,0,1,0,0,7.82h53.51a3.91,3.91,0,0,0,0-7.82Z"/><path class="cls-5" d="M962.21,560.39H930.06a3.92,3.92,0,0,0,0,7.83h32.15a3.92,3.92,0,0,0,0-7.83Z"/><path class="cls-5" d="M918.65,564.05a3.91,3.91,0,0,1-3.91,3.91H833.57a3.91,3.91,0,0,1-3.91-3.91h0a3.91,3.91,0,0,1,3.91-3.91h81.17a3.91,3.91,0,0,1,3.91,3.91Z"/><path class="cls-22" d="M914.3,159.08s11.53,5.23,16.3,7.8,19.21-.18,19.21-.18,2,3.38,0,4.54a75.36,75.36,0,0,1-7.92,3.32l20.73,18.57s-2,2.73-5.71.52c-3.3-2-17.81-9.89-17.81-9.89s-8.73,7.21-14.67,6.87S904.7,180,904.7,180Z"/><path class="cls-6" d="M888.44,86S857.29,11.7,911.86.87c0,0,40.31-8.61,39.47,28.46,0,0,5.84,35.41,28.75,30.83s28.32,17.07,26.65,25.41,15.42,21.24,28.75,19.57,27.07,17.5,27.07,30.83-207,0-207,0Z"/><path class="cls-23" d="M912.23,54.9a11.52,11.52,0,1,1-11.51-11.51A11.53,11.53,0,0,1,912.23,54.9Z"/><polygon class="cls-24" points="905.64 62.15 895.88 117.46 925.47 114.01 928.51 68.21 905.64 62.15"/><path class="cls-25" d="M943.64,27.41l3,33.46s-1.24,28-22.91,21.72S900,28.69,900,28.69Z"/><path class="cls-26" d="M899.63,87.13l-27,4.68s-71.11,26.75-64.48,43c3.76,9.2,99.47,52.4,99.47,52.4l12.87-29.87-34.53-17.61,151.53,2s10.5-9.09,2.59-22.84-97.29-29.84-97.29-29.84Z"/><path class="cls-27" d="M888.11,140.91l-36.56-18.85s32.72-16.54,37.61-17.47,18.45,12,27.06,13.62,31,3.61,31.73,3.85,15.36,18.62,15.36,18.62"/><path class="cls-5" d="M935.78,68.62c0,4.44-1.21,8-2.7,8s-2.71-3.59-2.71-8,1.21-8,2.71-8S935.78,64.18,935.78,68.62Z"/><path class="cls-28" d="M1011.89,119.11c-2.37-.29-64.83-.59-64.83-.59s.7,15.47,2.28,21.76c.09.39,78.52,1.78,78.52,1.78"/><path class="cls-29" d="M949.34,140.08l-1.76-14.22s-25,2-28.71,4.71c-6.31,1.46-15.23,3.67-15.23,4.57,0,1.38.2,4.55,3.76,4.94s36.79,0,36.79,0h5.15Z"/><rect class="cls-30" x="1116.48" y="131.18" width="108.4" height="16.62"/><rect class="cls-30" x="1139.68" y="197.32" width="108.4" height="16.62"/><rect class="cls-30" x="1162.87" y="263.46" width="108.4" height="16.62"/><rect class="cls-30" x="1186.07" y="329.6" width="108.4" height="16.62"/><rect class="cls-30" x="1209.27" y="395.73" width="108.4" height="16.62"/><rect class="cls-30" x="1232.47" y="461.87" width="108.4" height="16.62"/><rect class="cls-30" x="1255.66" y="528.01" width="108.4" height="16.62"/><rect class="cls-30" x="1278.86" y="594.15" width="108.4" height="16.62"/><rect class="cls-30" x="1302.06" y="660.29" width="108.4" height="16.62"/><rect class="cls-30" x="1325.26" y="726.43" width="108.4" height="16.62"/><rect class="cls-30" x="1348.45" y="792.57" width="108.4" height="16.62"/><rect class="cls-30" x="1371.65" y="858.71" width="108.4" height="16.62"/><path class="cls-31" d="M1396,928a7.13,7.13,0,0,1-6.71-4.74L1097.9,104.29a7.12,7.12,0,1,1,13.42-4.77l291.37,818.94A7.12,7.12,0,0,1,1396,928Z"/><path class="cls-32" d="M1500.43,928a7.11,7.11,0,0,1-6.71-4.74L1202.34,104.29a7.12,7.12,0,1,1,13.42-4.77l291.37,818.94a7.12,7.12,0,0,1-6.7,9.51Z"/><polyline class="cls-23" points="1267.28 175.34 1251.34 164.9 1246.67 157.2 1234.12 151.8 1245.66 182.76 1248.87 183.58 1259.86 187.7"/><path class="cls-6" d="M1455.22,163.8c-12.67,58.52,42.87,83.8-16.48,100.84,0,0,11.77-51-12.88-50.37a230,230,0,0,0-46.46,6.25s2.45-40.09.81-55.56S1455.22,163.8,1455.22,163.8Z"/><path class="cls-33" d="M1322.23,206.39c-13.73-12.09-57.15-32.15-57.15-32.15L1257,185.41s39.83,38.8,53.86,47C1334,245.91,1385,246.51,1385,246.51l31.36-30.41S1336,218.48,1322.23,206.39Z"/><path class="cls-5" d="M1361.8,242.29l-12.45,177,58.5,31.59-3.37-243S1370.23,210.23,1361.8,242.29Z"/><polyline class="cls-5" points="1386.53 212.98 1385.07 205.1 1397.15 196.31 1411.08 205.84"/><polyline class="cls-23" points="1390.01 599.3 1392.58 625.68 1414.56 626.78 1410.53 595.64"/><path class="cls-23" d="M1411.37,174a9.78,9.78,0,1,0,9.78-9.78A9.79,9.79,0,0,0,1411.37,174Z"/><polygon class="cls-34" points="1417.16 174.74 1425.45 221.73 1427.08 254.34 1378.71 253.26 1400.31 218.8 1397.73 179.88 1417.16 174.74"/><path class="cls-5" d="M1416.5,626l5.84,22.7s-42.34,12-63.6,12.81c-8.7.34-8.29-2.29-8.74-6.63-1-9.77,40.38-28.82,40.38-28.82Z"/><polyline class="cls-23" points="1263.62 434.81 1266.18 461.19 1288.16 462.29 1284.13 431.15"/><path class="cls-5" d="M1290.1,461.5l5.85,22.7s-70.78,21.13-72.34,6.18c-1-9.77,40.37-28.82,40.37-28.82Z"/><path class="cls-6" d="M1387.55,134.39s-20.82,36-6.55,54.75l12.25-43.77Z"/><path class="cls-35" d="M1387.18,143.79l-5,35.3s.72,25.25,19.13,19.88,17.68-37.6,17.68-37.6Z"/><path class="cls-6" d="M1382.5,143.74s27.53,30.87,43.41,30,29.31-11,29.31-11S1444,97.92,1387,135Z"/><path class="cls-36" d="M1435.4,215.14c-8.16-9.1-46.53,2.92-46.53,2.92s-20.47,31.28-23,45.39c-.13.74-.24,1.49-.34,2.16-1.63,13.05,10.6,19.56,10.6,19.56l-5.44,38.32,4.63,24.73,65.05-3.9s3.24-60.14,1.45-96.94"/><polygon class="cls-11" points="1376.84 347.76 1436.05 380.29 1410.64 507.12 1411.66 609.59 1390.54 610.09 1372.77 501.92 1374.62 393.33 1375.43 347.98 1376.84 347.76"/><path class="cls-11" d="M1435.32,338.58s21.65,32.7,4.74,58c-31,46.3-164.79-58.49-157.23-42.8,6.48,13.46,3.34,91.62,3.34,91.62l-23,.56s-36.73-119.55-6.28-130.23C1291.78,303.49,1435.32,338.58,1435.32,338.58Z"/><path class="cls-5" d="M1407.69,215.45l-4.12,23.36-2.2,176.4,67.6,30.88s-18.27-225.42-20.32-230.84S1417.58,200.07,1407.69,215.45Z"/><polygon class="cls-9" points="1550.57 330.58 1443.96 281.4 1464.2 267.57 1391.47 260.93 1427.38 331.13 1431.32 302.14 1526.66 388.65 1550.57 330.58"/><path class="cls-23" d="M1464.78,339s18.38,16,21.22,8.27c.83-2.29,6.55-13.54,3.43-18-2.75-3.92-13.42-10.05-18.24-11.15a4.73,4.73,0,0,0-1.66-.15C1466.27,318.48,1461.48,328.23,1464.78,339Z"/><path class="cls-37" d="M1441.83,247.38c19,2.67,36.77,7.11,40,14.47,7.28,16.81-4.76,51.44-4.76,51.44l9.64,3.43,4.77,1.7s25.12-61.64,13.38-72.88c-16-15.24-63.08-30.19-76.66-33.79C1428.16,211.75,1418.91,241.67,1441.83,247.38Z"/><polyline class="cls-23" points="1479.13 308.33 1493.83 314.23 1489.7 331.41 1469.65 318.77"/><polyline class="cls-5" points="1441.08 210.79 1435 191.66 1412.2 203.08 1412.99 211.49"/><path class="cls-5" d="M1387.67,184.83l11.28.89s-4.3,5.64-7.57,4.16"/><path class="cls-3" d="M456.82,348.78V320.06h-23a72.74,72.74,0,0,0-10.93-26.37l16.25-16.25-20.3-20.31-16.25,16.25a72.89,72.89,0,0,0-26.38-10.93v-23H347.52v23a73,73,0,0,0-26.38,10.93l-16.25-16.25-20.3,20.31,16.25,16.25a72.92,72.92,0,0,0-10.93,26.37h-23v28.72h23a72.85,72.85,0,0,0,10.93,26.37l-16.25,16.26,20.3,20.3,16.25-16.25a73,73,0,0,0,26.38,10.93v23h28.71v-23a73.07,73.07,0,0,0,26.38-10.93l16.25,16.25,20.3-20.3-16.24-16.26a72.83,72.83,0,0,0,10.92-26.37Zm-94.94,26.33a40.69,40.69,0,1,1,40.69-40.69A40.7,40.7,0,0,1,361.88,375.11Z"/><path class="cls-3" d="M1080.14,46.24V36.91h-7.47a23.64,23.64,0,0,0-3.55-8.57l5.28-5.28-6.6-6.6-5.28,5.28a23.64,23.64,0,0,0-8.57-3.55V10.72h-9.33v7.47a23.76,23.76,0,0,0-8.58,3.55l-5.28-5.28-6.6,6.6,5.28,5.28a23.82,23.82,0,0,0-3.55,8.57h-7.47v9.33h7.47a23.94,23.94,0,0,0,3.55,8.58l-5.28,5.28,6.6,6.6,5.28-5.28a23.94,23.94,0,0,0,8.58,3.55v7.47H1054V65a23.82,23.82,0,0,0,8.57-3.55l5.28,5.28,6.6-6.6-5.28-5.28a23.76,23.76,0,0,0,3.55-8.58Zm-30.86,8.56a13.23,13.23,0,1,1,13.23-13.22A13.22,13.22,0,0,1,1049.28,54.8Z"/><path class="cls-3" d="M1692.7,461.7V441.24h-16.37a52.16,52.16,0,0,0-7.79-18.79l11.58-11.58-14.47-14.46L1654.08,408a51.94,51.94,0,0,0-18.8-7.78V383.83h-20.46V400.2A51.82,51.82,0,0,0,1596,408l-11.58-11.57L1570,410.87l11.58,11.58a52,52,0,0,0-7.78,18.79H1557.4V461.7h16.38a51.94,51.94,0,0,0,7.78,18.8L1570,492.08l14.47,14.46L1596,495a51.82,51.82,0,0,0,18.79,7.78v16.37h20.46V502.75a52.12,52.12,0,0,0,18.8-7.78l11.57,11.57,14.47-14.46-11.58-11.58a52.13,52.13,0,0,0,7.79-18.8Zm-67.65,18.77a29,29,0,1,1,29-29A29,29,0,0,1,1625.05,480.47Z"/><path class="cls-2" d="M1643.05,451.47a18,18,0,1,1-18-18A18,18,0,0,1,1643.05,451.47Z"/><g class="cls-21"><path class="cls-2" d="M652.87,110.42A32.45,32.45,0,1,1,685.31,78,32.48,32.48,0,0,1,652.87,110.42Zm0-60.14A27.7,27.7,0,1,0,680.56,78,27.72,27.72,0,0,0,652.87,50.28Z"/><rect class="cls-2" x="650.49" y="61.11" width="4.75" height="33.72"/><rect class="cls-2" x="636.01" y="75.6" width="33.72" height="4.75"/></g><g class="cls-21"><path class="cls-2" d="M1723.9,893.92a32.44,32.44,0,1,1,32.44-32.44A32.47,32.47,0,0,1,1723.9,893.92Zm0-60.14a27.7,27.7,0,1,0,27.69,27.7A27.74,27.74,0,0,0,1723.9,833.78Z"/><rect class="cls-2" x="1721.52" y="844.62" width="4.75" height="33.72"/><rect class="cls-2" x="1707.04" y="859.11" width="33.72" height="4.75"/></g><g class="cls-21"><path class="cls-2" d="M210.69,858.32a49.06,49.06,0,1,1,49.06-49.06A49.11,49.11,0,0,1,210.69,858.32Zm0-90.94a41.88,41.88,0,1,0,41.88,41.88A41.92,41.92,0,0,0,210.69,767.38Z"/><rect class="cls-2" x="207.1" y="783.76" width="7.18" height="50.99"/><rect class="cls-2" x="185.2" y="805.67" width="50.99" height="7.18"/></g></g></g></g></svg>