<svg xmlns="http://www.w3.org/2000/svg" viewBox="0 0 710.58 270.34"><defs><style>.cls-1{fill:#fff;}</style></defs><g id="Layer_2" data-name="Layer 2"><g id="HQ"><path d="M137,27.91a4.2,4.2,0,0,1-4.19,4.22H104.63a4.21,4.21,0,0,1,0-8.42H132.8A4.2,4.2,0,0,1,137,27.91Z"/><rect x="66.4" y="38" width="104.63" height="146.79"/><path d="M36.09,0,0,43.38v227H169.58L205.67,227V0ZM189.83,216.06H47.6V15.85H189.83Z"/><path class="cls-1" d="M47.6,15.85V216.06H189.83V15.85Zm57,7.86H132.8a4.21,4.21,0,0,1,0,8.42H104.63a4.21,4.21,0,0,1,0-8.42Zm14.08,187.43a10.34,10.34,0,1,1,10.36-10.32A10.36,10.36,0,0,1,118.71,211.14ZM171,184.79H66.4V38H171Z"/><path d="M129.07,200.82a10.36,10.36,0,1,1-10.36-10.36A10.34,10.34,0,0,1,129.07,200.82Z"/><rect x="285.32" y="99.74" width="11.48" height="17.38"/><rect x="494.23" y="99.74" width="11.48" height="17.38"/><rect x="494.23" y="136.01" width="11.48" height="19.55"/><rect x="577.92" y="99.74" width="11.48" height="55.81"/><path d="M710.58,66.6H624.25l-4.16,15v5.52L599.79,66.6h-59.2l-4.19,15v1.65L515.63,66.6H331.68l-4.2,15v1.76L306.72,66.6H247.2V187.31L259,203.74h44V150h24.46v53.76H511.9l25.83-25.51,25.94,25.51H700.34l10.24-15V150.26L708,147.34l2.63-4.65Zm-383.1,61.69H285.32v53.76H254.81V73.25h49.57l23.1,18.68ZM369,182.05H338.5v-73.6H369Zm0-85.23H338.5V73.25H369Zm83.84-15.76-.15.55V136H435.5l17.2,16.92v29.12H422v-33H410.54v33H380V130.14h17.12L380,113.39V73.25h30.51v43.87H422V73.25h30.83Zm83.55,29.06-16.89,16.75H536.4v32.42l-23,22.76H463.72V73.25h49.57L536.4,91.82Zm83.83,28.09-.14.28v43.56H570.55l-23.17-23V73.25H597l23.11,23.14v34.53l.14.14Zm83.7-2.2H686.57l17.36,17.06v29H673.1v-33H661.62v33H631.08V130.14H648.2l-17.12-16.75V73.25h30.54v43.87H673.1V73.25h30.83Z"/><polygon class="cls-1" points="703.92 136.01 686.57 136.01 703.92 153.07 703.92 182.05 673.1 182.05 673.1 149.05 661.62 149.05 661.62 182.05 631.08 182.05 631.08 130.14 648.2 130.14 631.08 113.39 631.08 73.25 661.62 73.25 661.62 117.12 673.1 117.12 673.1 73.25 703.92 73.25 703.92 136.01"/><path class="cls-1" d="M620.09,130.92V96.39L597,73.25h-49.6v85.81l23.17,23h49.54V138.49l.14-.28v-7.15ZM589.4,155.56H577.92V99.74H589.4Z"/><path class="cls-1" d="M536.4,91.82,513.29,73.25H463.72v108.8h49.63l23-22.76V126.87H519.51l16.89-16.75Zm-30.69,63.74H494.23V136h11.48Zm0-38.44H494.23V99.74h11.48Z"/><polygon class="cls-1" points="452.85 73.25 452.85 81.06 452.7 81.61 452.7 136.01 435.5 136.01 452.7 152.93 452.7 182.05 422.02 182.05 422.02 149.05 410.54 149.05 410.54 182.05 380.03 182.05 380.03 130.14 397.15 130.14 380.03 113.39 380.03 73.25 410.54 73.25 410.54 117.12 422.02 117.12 422.02 73.25 452.85 73.25"/><rect class="cls-1" x="338.5" y="73.25" width="30.51" height="23.57"/><rect class="cls-1" x="338.5" y="108.45" width="30.51" height="73.6"/><path class="cls-1" d="M304.38,73.25H254.81v108.8h30.51V128.29h42.16V91.93Zm-7.58,43.87H285.32V99.74H296.8Z"/></g></g></svg>